<svg width="87" height="66" viewBox="0 0 87 66" fill="none" xmlns="http://www.w3.org/2000/svg">
<g clip-path="url(#clip0_3_3)">
<path d="M57.4634 4.40883C57.1785 4.95064 56.8782 5.48627 56.6119 6.03427C54.7171 9.91676 52.8161 13.7931 50.9492 17.6879C50.3795 18.8768 49.5188 19.6756 48.2587 20.0441C47.4073 21.2887 46.1967 21.7314 44.7446 21.5364C40.664 20.9884 36.6019 20.2236 32.5058 19.914C29.4004 19.6787 27.6635 18.239 26.4653 15.4773C25.1216 12.3812 23.3754 9.45854 21.8924 6.41819C21.0162 4.61936 19.7097 3.75865 17.7127 3.98466C17.1492 4.64104 17.0966 5.42744 17.1121 6.24171C17.3164 18.7406 17.5146 31.2364 17.7189 43.7322C17.7684 46.7788 18.9109 48.2711 21.846 49.1163C25.5241 50.1752 29.2023 51.2247 32.8866 52.265C34.1251 52.6149 35.122 53.2743 35.4719 54.5468C35.5059 54.6707 35.5369 54.7976 35.5616 54.9277L42.8808 55.6212C43.6331 54.7047 44.6084 54.0917 45.7756 53.6768C49.7386 52.265 53.6799 50.8037 57.6213 49.3361C57.9897 49.1999 58.4974 49.234 58.677 48.7355C59.1972 47.8624 59.3551 46.8995 59.3674 45.9026C59.5222 32.9826 59.6801 20.0657 59.8257 7.14577C59.8442 5.50175 59.2034 4.78655 57.4634 4.40883ZM29.1001 39.763C25.6046 39.7692 22.7593 36.9363 22.7562 33.4532C22.75 29.8153 25.5861 26.97 29.1992 26.9855C32.704 27.001 35.5338 29.8246 35.5554 33.3263C35.5771 36.9518 32.7628 39.7599 29.1001 39.763ZM45.6115 46.7602C45.3019 47.5218 44.7353 47.7633 43.9273 47.4258C42.4845 46.8252 41.0293 45.8097 39.5773 45.8035C38.1654 45.7973 36.7567 46.8562 35.3325 47.4165C35.0539 47.528 34.7876 47.559 34.5492 47.528C34.5152 47.5249 34.4811 47.5187 34.4501 47.5094C34.3944 47.5001 34.3418 47.4847 34.2891 47.463C34.2117 47.4351 34.1374 47.398 34.0693 47.3515C34.06 47.3453 34.0477 47.3391 34.0384 47.3268C34.0043 47.3051 33.9733 47.2772 33.9424 47.2494C33.9083 47.2184 33.8743 47.1874 33.8464 47.1503C33.8154 47.1162 33.7876 47.0791 33.7628 47.0388C33.673 46.8995 33.6111 46.7292 33.5801 46.5404C33.5801 46.5404 33.5801 46.5383 33.5801 46.5342C33.5709 46.4722 33.5647 46.4072 33.5647 46.3391C33.5585 46.2431 33.5647 46.1503 33.577 46.0667C33.577 46.0357 33.5863 46.0047 33.5956 45.9738C33.6018 45.9459 33.6111 45.918 33.6204 45.8902C33.6328 45.853 33.6483 45.8159 33.6668 45.7787C33.7752 45.5558 33.9672 45.3886 34.2117 45.2617C34.2396 45.2493 34.2644 45.2369 34.2922 45.2245C34.3201 45.209 34.3511 45.1967 34.382 45.1843L37.2242 44.0232C38.6732 43.4319 39.0107 41.9365 37.9363 40.7754C37.4131 40.212 36.5059 39.8435 36.992 38.8187C37.4657 37.8187 38.4131 38.119 39.2181 38.085C39.8745 38.0571 40.534 38.0819 41.1903 38.1035C41.7136 38.1221 42.1099 38.3729 42.2894 38.8714C42.4814 39.4008 42.3606 39.8776 41.921 40.2553C41.7259 40.4194 41.5185 40.5742 41.3482 40.7631C40.3172 41.9055 40.6454 43.4412 42.0356 44.014C42.9799 44.4041 43.9273 44.788 44.8716 45.1812C45.5899 45.4815 45.9088 46.0202 45.6115 46.7602ZM52.039 40.3915C48.5714 40.3884 45.6827 37.5029 45.6858 34.0446C45.6858 30.4872 48.528 27.6202 52.0669 27.6078C55.6212 27.5954 58.5315 30.4469 58.547 33.9579C58.5625 37.506 55.6428 40.3915 52.039 40.3915Z" fill="#F98A10"/>
<path d="M29.1992 26.9855C25.5861 26.97 22.75 29.8153 22.7562 33.4532C22.7593 36.9363 25.6046 39.7692 29.1001 39.763C32.7628 39.7599 35.5771 36.9518 35.5555 33.3263C35.5338 29.8246 32.704 27.001 29.1992 26.9855ZM29.1589 37.3512C26.97 37.3666 25.2083 35.6205 25.1929 33.4191C25.1743 31.2302 26.9298 29.4252 29.0877 29.4097C31.32 29.3942 33.1374 31.1931 33.125 33.4068C33.1126 35.5895 31.3572 37.3357 29.1589 37.3512Z" fill="#060505"/>
<path d="M52.0668 27.6078C48.528 27.6202 45.6858 30.4872 45.6858 34.0446C45.6827 37.5029 48.5713 40.3884 52.039 40.3915C55.6428 40.3915 58.5624 37.506 58.5469 33.9579C58.5315 30.4469 55.6211 27.5954 52.0668 27.6078ZM52.1226 37.9611C49.946 37.9859 48.1472 36.1994 48.1348 34.0105C48.1224 31.8556 49.8531 30.0785 51.9832 30.0568C54.2898 30.0289 56.0855 31.7473 56.0917 33.9826C56.0948 36.1716 54.3332 37.9394 52.1226 37.9611Z" fill="#060505"/>
<path d="M33.5616 46.3391C33.5337 45.7416 33.865 45.3948 34.382 45.1843C35.3294 44.7973 36.2768 44.4133 37.2211 44.0263C38.6701 43.4319 39.0107 41.9396 37.9332 40.7785C37.41 40.215 36.5028 39.8435 36.9889 38.8218C37.4626 37.8218 38.41 38.1221 39.215 38.088C39.8714 38.0602 40.5309 38.0849 41.1872 38.1066C41.7074 38.1252 42.1068 38.376 42.2863 38.8713C42.4783 39.4008 42.3575 39.8776 41.9179 40.2553C41.7228 40.4225 41.5154 40.5742 41.3451 40.7631C40.3141 41.9055 40.6423 43.4443 42.0325 44.017C42.9768 44.4071 43.9273 44.788 44.8685 45.1843C45.5868 45.4846 45.9057 46.0233 45.6084 46.7633C45.2988 47.528 44.7322 47.7695 43.9242 47.432C42.4814 46.8283 41.0293 45.8159 39.5742 45.8097C38.1624 45.8035 36.7505 46.8623 35.3294 47.4227C34.382 47.7943 33.5801 47.2865 33.5585 46.3453L33.5616 46.3391Z" fill="#060505"/>
<path d="M78.8943 48.3916C75.1263 47.0325 71.3615 45.6764 67.5935 44.3234C66.5006 43.9271 65.4139 43.5122 64.3086 43.1562C63.5748 42.9208 63.807 42.3605 63.8349 41.8991C63.8659 41.3202 64.321 41.6174 64.5903 41.6391C66.1198 41.7691 67.6462 41.927 69.1725 42.0756C72.0798 42.3636 74.987 42.6515 77.8942 42.9363C78.7116 43.0168 79.2844 42.6763 79.3773 41.8527C79.4639 41.0818 79.0305 40.6297 78.2317 40.5554C77.6868 40.5059 77.145 40.4223 76.6001 40.3697C72.6402 39.9796 68.6803 39.5864 64.7204 39.2148C64.0795 39.1529 63.8101 38.9641 63.8318 38.2303C63.9123 35.4531 63.8999 32.6759 63.9371 29.8987C64.0423 21.7839 64.1538 13.6721 64.2653 5.55729C64.29 3.84515 63.7358 2.39928 62.3054 1.38376C59.8502 -0.359333 56.6489 0.46113 55.2773 3.23832C53.1162 7.60999 50.9923 12.0033 48.8994 16.4091C48.435 17.3905 47.825 17.7559 46.7476 17.598C42.3419 16.9509 37.933 16.3255 33.518 15.7527C32.453 15.6134 31.8523 15.1304 31.3848 14.1861C29.586 10.5698 27.716 6.99077 25.8769 3.39622C25.0936 1.86366 23.9666 0.730489 22.273 0.250596C18.2791 -0.882571 14.6257 1.93487 14.6814 6.17341C14.8208 16.8085 14.9818 27.4435 15.1892 38.0755C15.2078 39.125 14.9291 39.4285 13.9074 39.4904C9.86084 39.7288 5.82045 40.0724 1.77386 40.3356C0.85742 40.3944 0.241299 40.6917 0.340374 41.6731C0.439449 42.6608 1.15774 42.8218 2.03084 42.7537C6.07123 42.444 10.1178 42.1499 14.1644 41.8899C14.4895 41.8682 15.0839 41.4069 15.2016 42.1871C15.2883 42.7598 15.2047 43.184 14.505 43.4255C12.7495 44.0354 11.0312 44.7475 9.30354 45.4256C6.52635 46.5185 3.75226 47.6176 0.975071 48.7043C0.420872 48.9211 0.0183809 49.2245 -0.000195568 49.8716C-0.0187721 50.4072 0.250587 50.8004 0.684039 51.0357C1.18561 51.3112 1.67788 51.0574 2.15158 50.8685C6.30963 49.2214 10.4646 47.5681 14.6319 45.9488C14.8362 45.8683 15.2047 45.3729 15.4245 45.9271C15.6908 46.6052 16.022 47.1934 15.1087 47.8529C11.799 50.2493 8.58215 52.7788 5.31269 55.2371C4.62226 55.7572 4.17333 56.3083 4.72443 57.1567C5.19813 57.8842 5.8576 57.8749 6.78642 57.169C10.0435 54.6984 13.313 52.2401 16.5484 49.7415C17.0469 49.3576 17.3317 49.2864 17.8085 49.7632C18.6259 50.5682 19.6568 51.0326 20.7622 51.3484C24.335 52.367 27.8955 53.4042 31.4653 54.4352C31.6294 54.4847 31.8028 54.5343 31.9886 54.5869C32.6852 54.782 33.3973 54.9491 34.1156 55.0947C40.4533 56.3826 47.0293 55.7944 53.1039 53.5807C54.946 52.9088 56.7851 52.2401 58.6304 51.5744C59.6025 51.2245 60.5314 50.7973 61.2651 50.0635C61.6707 49.661 61.9556 49.7446 62.3612 50.0264C64.0114 51.1719 65.6771 52.2865 67.3397 53.4135C70.5998 55.6272 73.8631 57.8347 77.1202 60.0515C77.6403 60.4044 78.1667 60.5902 78.7302 60.2001C79.2008 59.875 79.3432 59.4044 79.2162 58.8502C79.1048 58.3672 78.6806 58.1815 78.3246 57.94C73.4947 54.6612 68.6834 51.3546 63.8163 48.1347C62.6088 47.3359 63.5501 46.5587 63.7018 45.8745C63.8597 45.1624 64.5067 45.7909 64.8535 45.9117C69.2716 47.4783 73.6805 49.079 78.08 50.6951C78.8974 50.9923 79.6002 51.0419 80.0181 50.1409C80.3711 49.3824 79.9686 48.7786 78.8943 48.3916ZM61.5376 29.6541C61.4788 34.4778 61.4323 39.3015 61.3797 44.1252C61.3611 45.8931 60.8255 47.4226 59.3425 48.5062C59.1505 48.6455 58.9771 48.887 58.6768 48.7353C58.4972 49.2338 57.9895 49.1997 57.6211 49.3359C55.3702 50.175 53.1193 51.0109 50.8654 51.8345C45.9364 53.6395 40.5926 54.0203 35.4655 52.8995C34.2023 52.624 33.2796 52.3732 32.9855 52.2927C32.9483 52.2834 32.9205 52.2741 32.9019 52.271C32.8926 52.2679 32.8864 52.2648 32.8864 52.2648C29.2021 51.2245 25.5239 50.175 21.8458 49.1161C18.9107 48.2709 17.7682 46.7786 17.7187 43.732C17.5144 31.2362 17.3162 18.7404 17.1119 6.24152C17.0964 5.42725 17.149 4.64085 17.7125 3.98448C19.3349 1.76458 22.3443 1.91319 23.6291 4.34981C25.5332 7.95675 27.394 11.5854 29.1866 15.2449C30.0133 16.9354 31.1743 17.8766 33.097 18.115C37.7628 18.7002 42.4069 19.4339 47.0634 20.0903C47.4504 20.146 47.8591 20.0624 48.2585 20.0439C49.5186 19.6754 50.3793 18.8766 50.949 17.6877C52.8159 13.7929 54.7169 9.91658 56.6117 6.03408C56.878 5.48608 57.1783 4.95045 57.4632 4.40864C58.0266 3.22903 58.8409 2.76771 59.9586 2.99682C61.2094 3.2538 61.872 4.10832 61.8565 5.53871C61.7543 13.5792 61.6398 21.6167 61.5376 29.6541Z" fill="black"/>
<path d="M33.3974 50.9863L41.3327 50.3145C42.3235 50.2309 43.0758 50.2371 43.6981 50.3331C46.6827 50.7944 46.9088 53.4973 47.0078 54.6521C47.1131 55.8998 46.9088 56.8379 46.5248 57.5377C47.0512 58.1135 47.3639 58.8906 47.4444 59.8411L47.8066 64.1354L41.568 64.6618L41.2336 60.7204C41.1779 60.7235 40.3636 60.7916 40.3636 60.7916L40.698 64.733L34.6018 65.25L33.3943 50.9832L33.3974 50.9863Z" fill="white"/>
<path d="M45.4629 54.7821C45.6177 56.6305 45.0047 57.5624 43.4597 57.9123C44.9644 57.9432 45.7787 58.5377 45.8994 59.9712L46.1316 62.7236L42.9767 62.9899L42.76 60.4108C42.6547 59.1786 42.4876 59.0609 40.924 59.1941L38.6887 59.3829L39.023 63.3242L36.0136 63.5781L35.0693 52.3981L41.4628 51.8563C44.4443 51.6056 45.2431 52.1845 45.4629 54.7821ZM41.1067 56.8658C42.4535 56.7512 42.5866 56.6088 42.4907 55.4633C42.3978 54.3611 42.243 54.2434 40.8962 54.358L38.2862 54.5778L38.4998 57.0856L41.1098 56.8658H41.1067Z" fill="black"/>
<path d="M49.7912 63.832C45.9521 63.2375 45.3669 60.0857 45.1223 57.1754C44.9428 55.0453 44.9551 52.8626 46.2555 51.33C47.5528 49.8067 49.7107 49.429 51.8501 49.2463C53.2248 49.1287 54.2744 49.138 55.1475 49.2742C58.9866 49.8686 59.5718 53.0205 59.8163 55.9308C60.2777 61.3923 58.581 63.3923 53.0855 63.8568C51.7108 63.9744 50.6612 63.9651 49.7881 63.8289L49.7912 63.832ZM51.3021 54.906C51.2681 55.197 51.2897 55.7822 51.3609 56.6491C51.4352 57.5129 51.5126 58.0918 51.5931 58.3736C51.8687 58.3953 52.3022 58.3643 52.621 58.3364C53.1845 58.29 53.4818 58.2405 53.6397 58.2033C53.6737 57.9123 53.652 57.3271 53.5808 56.4602C53.5065 55.5933 53.4291 55.0143 53.3486 54.7326C53.0731 54.7109 52.6396 54.7419 52.3207 54.7697C51.7572 54.8162 51.46 54.8657 51.3021 54.9029V54.906Z" fill="white"/>
<path d="M51.9833 50.7944C56.6274 50.4012 57.8844 51.4507 58.2776 56.067C58.6677 60.6833 57.6027 61.9279 52.9585 62.3211C48.3144 62.7143 47.0574 61.6647 46.6673 57.0485C46.2772 52.4322 47.3422 51.1876 51.9864 50.7944H51.9833ZM49.8191 56.7791C50.073 59.7761 50.3578 60.0826 52.7511 59.8814C55.1444 59.6801 55.3766 59.3272 55.1227 56.3302C54.8688 53.3332 54.584 53.0267 52.1907 53.2279C49.7974 53.4291 49.5652 53.7821 49.8191 56.7791Z" fill="black"/>
<path d="M57.2745 48.9646L62.4078 48.5311L65.4481 51.6984L65.1602 48.2989L71.2564 47.7819L72.4608 62.0487L67.3491 62.4821L64.2902 59.3148L64.5781 62.7143L58.4819 63.2314L57.2745 48.9646Z" fill="white"/>
<path d="M58.9494 50.3764L61.8009 50.1349L67.2624 55.8224L67.3491 55.8162L66.8321 49.7107L69.8415 49.4569L70.7858 60.6368L67.9467 60.8783L62.4728 55.2063L62.3861 55.2125L62.9001 61.3056L59.8907 61.5595L58.9464 50.3795L58.9494 50.3764Z" fill="black"/>
<path d="M48.2649 39.2181L56.228 39.3172C57.2218 39.3296 57.9711 39.407 58.581 39.5618C61.5068 40.311 61.4728 43.0201 61.4573 44.178C61.4418 45.432 61.1477 46.3422 60.6987 47.0048C61.1662 47.6302 61.4046 48.4321 61.3923 49.3857L61.3396 53.6954L55.0793 53.618L55.1289 49.6643C55.0731 49.6643 54.2558 49.6519 54.2558 49.6519L54.2062 53.6087L48.0884 53.5344L48.2649 39.2181Z" fill="white"/>
<path d="M59.9092 44.1626C59.8876 46.0171 59.1848 46.8871 57.615 47.0822C59.1105 47.2586 59.8628 47.9305 59.8442 49.3671L59.8102 52.1288L56.646 52.0885L56.6769 49.5002C56.6924 48.2618 56.5345 48.1317 54.9679 48.1132L52.7232 48.0853L52.6737 52.0421L49.6519 52.0049L49.7881 40.7847L56.2032 40.8621C59.1941 40.8993 59.934 41.5557 59.9031 44.1595L59.9092 44.1626ZM55.3704 45.819C56.7234 45.8344 56.8689 45.7075 56.8813 44.5558C56.8937 43.4474 56.7543 43.3173 55.4013 43.3018L52.7821 43.2709L52.7511 45.788L55.3673 45.819H55.3704Z" fill="black"/>
<path d="M63.3428 53.5901C59.578 52.6273 59.3024 49.4321 59.3365 46.5156C59.3612 44.3762 59.5873 42.2058 61.03 40.8095C62.4666 39.4163 64.6525 39.2491 66.8011 39.2769C68.182 39.2924 69.2254 39.4039 70.0799 39.6237C73.8447 40.5866 74.1203 43.7786 74.0862 46.6983C74.0181 52.1783 72.1357 54.005 66.6216 53.94C65.2407 53.9245 64.2004 53.8131 63.3428 53.5932V53.5901ZM65.7082 44.8499C65.6463 45.1378 65.6091 45.7199 65.5999 46.5899C65.5906 47.4568 65.6122 48.042 65.6649 48.3299C65.9373 48.3763 66.3708 48.3887 66.6897 48.3918C67.2532 48.398 67.5566 48.3794 67.7176 48.3547C67.7795 48.0667 67.8167 47.4847 67.8259 46.6147C67.8352 45.7447 67.8136 45.1626 67.7609 44.8747C67.4885 44.8282 67.055 44.8158 66.7361 44.8127C66.1726 44.8065 65.8692 44.8251 65.7113 44.8499H65.7082Z" fill="white"/>
<path d="M66.7825 40.8219C71.4421 40.8776 72.5939 42.0448 72.5381 46.6766C72.4824 51.3083 71.3028 52.4446 66.6432 52.3889C61.9836 52.3331 60.8319 51.1659 60.8876 46.5342C60.9433 41.9024 62.1229 40.7662 66.7825 40.8219ZM64.0487 46.5713C64.0115 49.5776 64.2654 49.912 66.668 49.9399C69.0705 49.9677 69.3337 49.6426 69.3709 46.6363C69.408 43.63 69.1541 43.2957 66.7516 43.2678C64.349 43.2399 64.0858 43.5681 64.0487 46.5744V46.5713Z" fill="black"/>
<path d="M72.2254 39.5122L77.3742 39.5742L80.0957 43.0201L80.1359 39.6082L86.2538 39.6825L86.0804 53.9988L80.9471 53.9369L78.2102 50.4879L78.1668 53.9028L72.0521 53.8285L72.2254 39.5122Z" fill="white"/>
<path d="M73.7549 41.0789L76.6157 41.1129L81.5044 47.302H81.5911L81.6654 41.1748L84.6872 41.212L84.551 52.4322L81.7026 52.3981L76.8015 46.2246H76.7148L76.6405 52.3362L73.6187 52.2991L73.7549 41.0789Z" fill="black"/>
</g>
<defs>
<clipPath id="clip0_3_3">
<rect width="86.2538" height="65.25" fill="white"/>
</clipPath>
</defs>
</svg>
